<svg width="19" height="22" viewBox="0 0 19 22" fill="none" xmlns="http://www.w3.org/2000/svg">
<path fill-rule="evenodd" clip-rule="evenodd" d="M12.503 0C21.7817 0 17.4242 9.17913 13.1712 13.7082C12.8062 14.0969 12.1998 14.0969 11.8348 13.7082C7.58185 9.17913 3.22432 0 12.503 0ZM12.4981 3.08203C15.9964 3.08203 13.9964 7.19124 12.4988 7.19124C11.0012 7.19124 8.99983 3.08203 12.4981 3.08203ZM4.78353 14.3464C5.05792 14.3154 5.2552 14.0678 5.22417 13.7934C5.19313 13.519 4.94553 13.3217 4.67114 13.3528C4.40458 13.3829 4.12895 13.4378 3.84394 13.5192C3.50811 13.6151 3.19944 13.7491 2.91658 13.9148C2.67832 14.0544 2.59833 14.3607 2.73792 14.599C2.87751 14.8373 3.18382 14.9173 3.42208 14.7777C3.63334 14.6539 3.86452 14.5533 4.1185 14.4808C4.354 14.4135 4.57539 14.37 4.78353 14.3464ZM15.1344 13.8764C14.9002 13.73 14.5917 13.8012 14.4454 14.0354C14.299 14.2695 14.3702 14.578 14.6043 14.7244C15.029 14.9898 15.4335 15.2884 15.7851 15.6179C15.9866 15.8067 16.303 15.7964 16.4918 15.5949C16.6806 15.3934 16.6703 15.077 16.4688 14.8882C16.0598 14.5049 15.6009 14.1679 15.1344 13.8764ZM7.17541 13.8987C6.9407 13.7532 6.63249 13.8255 6.48701 14.0602C6.34153 14.2949 6.41386 14.6032 6.64857 14.7486C7.02058 14.9792 7.34894 15.2924 7.64064 15.6557C7.81353 15.871 8.12824 15.9054 8.34356 15.7325C8.55889 15.5597 8.59328 15.2449 8.42039 15.0296C8.07699 14.6019 7.66692 14.2033 7.17541 13.8987ZM1.9133 16.5415C2.03289 16.2926 1.92805 15.9939 1.67914 15.8743C1.43024 15.7547 1.13152 15.8596 1.01193 16.1085C0.738025 16.6786 0.540075 17.2849 0.396242 17.8738C0.330722 18.1421 0.495072 18.4127 0.763329 18.4782C1.03159 18.5437 1.30217 18.3794 1.36769 18.1111C1.49951 17.5714 1.67669 17.034 1.9133 16.5415ZM17.8778 17.0906C17.8071 16.8236 17.5334 16.6645 17.2665 16.7352C16.9995 16.8059 16.8404 17.0796 16.9111 17.3465C16.9666 17.5563 16.9965 17.7737 16.9965 17.9998C16.9965 18.3094 16.9346 18.5745 16.8293 18.8015C16.7132 19.0521 16.8221 19.3493 17.0726 19.4655C17.3231 19.5817 17.6204 19.4728 17.7365 19.2223C17.9062 18.8563 17.9965 18.4467 17.9965 17.9998C17.9965 17.6845 17.9547 17.381 17.8778 17.0906ZM9.63851 17.096C9.52388 16.8448 9.2273 16.7341 8.97607 16.8487C8.72484 16.9633 8.61411 17.2599 8.72873 17.5112C8.83489 17.7438 8.92919 17.9641 9.01592 18.1667L9.02875 18.1966C9.18771 18.5679 9.39583 18.9036 9.64135 19.2034C9.8163 19.4171 10.1313 19.4485 10.345 19.2735C10.5586 19.0986 10.59 18.7836 10.4151 18.5699C10.2262 18.3392 10.0682 18.0837 9.94802 17.803L9.93425 17.7708L9.93416 17.7706C9.8481 17.5696 9.74965 17.3396 9.63851 17.096ZM12.7853 19.9716C12.5169 19.9064 12.2465 20.071 12.1813 20.3393C12.1161 20.6077 12.2807 20.8781 12.549 20.9433C13.2958 21.1249 14.0729 21.1709 14.7983 21.0783C15.0722 21.0434 15.2659 20.7929 15.2309 20.519C15.1959 20.2451 14.9455 20.0514 14.6716 20.0864C14.0727 20.1628 13.4187 20.1256 12.7853 19.9716ZM1.0191 20.6411C1.03249 20.3653 0.819755 20.1308 0.543937 20.1174C0.26812 20.104 0.0336697 20.3168 0.0202785 20.5926C6.29344e-05 21.009 0.000103191 21.3257 0.000123409 21.4847V21.4848L0.00012624 21.4994C0.00012624 21.7756 0.223984 21.9994 0.500126 21.9994C0.776269 21.9994 1.00013 21.7756 1.00013 21.4994L1.00013 21.4854C1.00011 21.3304 1.00007 21.0331 1.0191 20.6411Z" fill="white"/>
</svg>
