<svg width="18" height="22" viewBox="0 0 18 22" fill="none" xmlns="http://www.w3.org/2000/svg">
<path fill-rule="evenodd" clip-rule="evenodd" d="M1 0C0.447715 0 0 0.447716 0 1V21C0 21.5523 0.447716 22 1 22H17C17.5523 22 18 21.5523 18 21V1C18 0.447715 17.5523 0 17 0H1ZM3 4H8V9H3V4ZM2 4C2 3.44772 2.44772 3 3 3H8C8.55228 3 9 3.44772 9 4V9C9 9.55228 8.55228 10 8 10H3C2.44772 10 2 9.55228 2 9V4ZM12.9146 3H14.0854H15.5C15.7761 3 16 3.22386 16 3.5C16 3.77614 15.7761 4 15.5 4H14.0854H12.9146H11.5C11.2239 4 11 3.77614 11 3.5C11 3.22386 11.2239 3 11.5 3H12.9146ZM14.0854 6H12.9146H11.5C11.2239 6 11 6.22386 11 6.5C11 6.77614 11.2239 7 11.5 7H12.9146H14.0854H15.5C15.7761 7 16 6.77614 16 6.5C16 6.22386 15.7761 6 15.5 6H14.0854ZM12.9146 9H14.0854H15.5C15.7761 9 16 9.22386 16 9.5C16 9.77614 15.7761 10 15.5 10H14.0854H12.9146H11.5C11.2239 10 11 9.77614 11 9.5C11 9.22386 11.2239 9 11.5 9H12.9146ZM14.0854 13H15.5C15.7761 13 16 12.7761 16 12.5C16 12.2239 15.7761 12 15.5 12H14.0854H3.91465H2.5C2.22386 12 2 12.2239 2 12.5C2 12.7761 2.22386 13 2.5 13H3.91465H14.0854ZM15.5 16H14.0854H3.91465H2.5C2.22386 16 2 15.7761 2 15.5C2 15.2239 2.22386 15 2.5 15H3.91465H14.0854H15.5C15.7761 15 16 15.2239 16 15.5C16 15.7761 15.7761 16 15.5 16ZM3.91465 19H8.08535H9.5C9.77614 19 10 18.7761 10 18.5C10 18.2239 9.77614 18 9.5 18H8.08535H3.91465H2.5C2.22386 18 2 18.2239 2 18.5C2 18.7761 2.22386 19 2.5 19H3.91465Z" fill="white"/>
</svg>
