<svg width="98" height="40" viewBox="0 0 98 40" fill="none" xmlns="http://www.w3.org/2000/svg">
<path fill-rule="evenodd" clip-rule="evenodd" d="M20 36C11.1634 36 4 28.8366 4 20C4 11.1634 11.1634 4 20 4C28.8366 4 36 11.1634 36 20C36 28.8366 28.8366 36 20 36ZM32.0019 36C36.8586 32.3511 40 26.5424 40 20C40 8.95431 31.0457 0 20 0C8.95431 0 0 8.95431 0 20C0 31.0457 8.95431 40 20 40H98V36H32.0019ZM21.3589 7.07123C18.6286 6.78426 15.8775 7.36902 13.5 8.74168L16.75 14.3708C17.9388 13.6845 19.3143 13.3921 20.6794 13.5356L21.3589 7.07123ZM7 20C7 17.2547 7.86911 14.5798 9.48278 12.3588L14.7414 16.1794C13.9346 17.2899 13.5 18.6273 13.5 20L7 20ZM33 20C33 22.7453 32.1309 25.4202 30.5172 27.6412L25.2586 23.8206C26.0654 22.7101 26.5 21.3727 26.5 20H33ZM26.5 31.2583C24.1225 32.631 21.3714 33.2158 18.6411 32.9288L19.3206 26.4644C20.6857 26.6079 22.0612 26.3155 23.25 25.6292L26.5 31.2583ZM8.12391 25.2876C9.24054 27.7956 11.1225 29.8857 13.5 31.2583L16.75 25.6292C15.5612 24.9428 14.6203 23.8978 14.062 22.6438L8.12391 25.2876ZM26.5 8.74168C28.8775 10.1143 30.7595 12.2045 31.8761 14.7124L25.938 17.3562C25.3797 16.1022 24.4388 15.0572 23.25 14.3708L26.5 8.74168ZM17 20C17 18.3431 18.3431 17 20 17C21.6569 17 23 18.3431 23 20C23 21.6569 21.6569 23 20 23C18.3431 23 17 21.6569 17 20Z" fill="#43D000"/>
</svg>
