<svg width="80" height="80" viewBox="0 0 80 80" fill="none" xmlns="http://www.w3.org/2000/svg">
<path fill-rule="evenodd" clip-rule="evenodd" d="M16 0C11.5817 0 8 3.58172 8 8V14H14C17.3137 14 20 16.6863 20 20V58H60V20C60 16.6863 62.6863 14 66 14H72V8C72 3.58172 68.4183 0 64 0H16ZM12 18C14.2091 18 16 19.7909 16 22V58H4C2.46329 58 1.06151 58.5777 0 59.5278V22C0 19.7909 1.79086 18 4 18H12ZM80 59.5278V22C80 19.7909 78.2091 18 76 18H68C65.7909 18 64 19.7909 64 22V58H76C77.5367 58 78.9385 58.5777 80 59.5278ZM4 62C1.79086 62 0 63.7909 0 66V76C0 78.2091 1.79086 80 4 80H76C78.2091 80 80 78.2091 80 76V66C80 63.7909 78.2091 62 76 62H4Z" fill="#ECF2FF"/>
</svg>
