<svg width="18" height="22" viewBox="0 0 18 22" fill="none" xmlns="http://www.w3.org/2000/svg">
<path fill-rule="evenodd" clip-rule="evenodd" d="M3 1H1.5C1.22386 1 1 1.22386 1 1.5V3.5H3V1ZM15 1V3.5H17V1.5C17 1.22386 16.7761 1 16.5 1H16H15ZM3 4.5H1V7H3V8H1V10.5H3V8H15V10.5H17V8H15V7H17V4.5H15V7H3V4.5ZM3 11.5H1V14H3V15H1V17.5H3V15H15V17.5H17V15H15V14H17V11.5H15V14H3V11.5ZM3 18.5H1V20.5C1 20.7761 1.22386 21 1.5 21H2H3V18.5ZM2 22H1.5C0.671573 22 0 21.3284 0 20.5V18V14.5V11V7.5V4V1.5C0 0.671573 0.671573 0 1.5 0H16H16.5C17.3284 0 18 0.671573 18 1.5V4V7.5V11V14.5V18V20.5C18 21.3284 17.3284 22 16.5 22H2ZM16.5 21H15V18.5H17V20.5C17 20.7761 16.7761 21 16.5 21Z" fill="white"/>
</svg>
