<svg width="80" height="80" viewBox="0 0 80 80" fill="none" xmlns="http://www.w3.org/2000/svg">
<mask id="path-1-inside-1" fill="white">
<path fill-rule="evenodd" clip-rule="evenodd" d="M16 0C11.5817 0 8 3.58172 8 8V14H14C17.3137 14 20 16.6863 20 20V58H60V20C60 16.6863 62.6863 14 66 14H72V8C72 3.58172 68.4183 0 64 0H16ZM12 18C14.2091 18 16 19.7909 16 22V58H4C2.46329 58 1.06151 58.5777 0 59.5278V22C0 19.7909 1.79086 18 4 18H12ZM80 59.5278V22C80 19.7909 78.2091 18 76 18H68C65.7909 18 64 19.7909 64 22V58H76C77.5367 58 78.9385 58.5777 80 59.5278ZM4 62C1.79086 62 0 63.7909 0 66V76C0 78.2091 1.79086 80 4 80H76C78.2091 80 80 78.2091 80 76V66C80 63.7909 78.2091 62 76 62H4Z"/>
</mask>
<path d="M8 14H6V16H8V14ZM20 58H18V60H20V58ZM60 58V60H62V58H60ZM72 14V16H74V14H72ZM16 58V60H18V58H16ZM0 59.5278H-2V64.0019L1.33383 61.0181L0 59.5278ZM80 59.5278L78.6662 61.0181L82 64.0019V59.5278H80ZM64 58H62V60H64V58ZM10 8C10 4.68629 12.6863 2 16 2V-2C10.4772 -2 6 2.47715 6 8H10ZM10 14V8H6V14H10ZM14 12H8V16H14V12ZM22 20C22 15.5817 18.4183 12 14 12V16C16.2091 16 18 17.7909 18 20H22ZM22 58V20H18V58H22ZM60 56H20V60H60V56ZM58 20V58H62V20H58ZM66 12C61.5817 12 58 15.5817 58 20H62C62 17.7909 63.7909 16 66 16V12ZM72 12H66V16H72V12ZM70 8V14H74V8H70ZM64 2C67.3137 2 70 4.68629 70 8H74C74 2.47715 69.5228 -2 64 -2V2ZM16 2H64V-2H16V2ZM18 22C18 18.6863 15.3137 16 12 16V20C13.1046 20 14 20.8954 14 22H18ZM18 58V22H14V58H18ZM4 60H16V56H4V60ZM1.33383 61.0181C2.04283 60.3835 2.97425 60 4 60V56C1.95234 56 0.0801959 56.7719 -1.33383 58.0375L1.33383 61.0181ZM-2 22V59.5278H2V22H-2ZM4 16C0.686292 16 -2 18.6863 -2 22H2C2 20.8954 2.89543 20 4 20V16ZM12 16H4V20H12V16ZM78 22V59.5278H82V22H78ZM76 20C77.1046 20 78 20.8954 78 22H82C82 18.6863 79.3137 16 76 16V20ZM68 20H76V16H68V20ZM66 22C66 20.8954 66.8954 20 68 20V16C64.6863 16 62 18.6863 62 22H66ZM66 58V22H62V58H66ZM76 56H64V60H76V56ZM81.3338 58.0375C79.9198 56.7719 78.0477 56 76 56V60C77.0257 60 77.9572 60.3835 78.6662 61.0181L81.3338 58.0375ZM2 66C2 64.8954 2.89543 64 4 64V60C0.686292 60 -2 62.6863 -2 66H2ZM2 76V66H-2V76H2ZM4 78C2.89543 78 2 77.1046 2 76H-2C-2 79.3137 0.686292 82 4 82V78ZM76 78H4V82H76V78ZM78 76C78 77.1046 77.1046 78 76 78V82C79.3137 82 82 79.3137 82 76H78ZM78 66V76H82V66H78ZM76 64C77.1046 64 78 64.8954 78 66H82C82 62.6863 79.3137 60 76 60V64ZM4 64H76V60H4V64Z" fill="#ECF2FF" mask="url(#path-1-inside-1)"/>
</svg>
