<svg width="18" height="22" viewBox="0 0 18 22" fill="none" xmlns="http://www.w3.org/2000/svg">
<path fill-rule="evenodd" clip-rule="evenodd" d="M11.5187 0.632788C11.7497 0.277441 12.1142 0 12.538 0H17.0009C17.5532 0 18.0009 0.447715 18.0009 1V21C18.0009 21.5523 17.5532 22 17.0009 22H12.538C12.1142 22 11.7497 21.7226 11.5187 21.3672C10.9838 20.5442 10.0562 20 9.00156 20C7.94688 20 7.01932 20.5442 6.48439 21.3672C6.25342 21.7226 5.88891 22 5.46509 22H1C0.447715 22 0 21.5523 0 21V16H1.5C1.77614 16 2 15.7761 2 15.5C2 15.2239 1.77614 15 1.5 15H0V1C0 0.447716 0.447715 0 1 0H5.46509C5.88891 0 6.25342 0.27744 6.48439 0.632788C7.01932 1.45575 7.94688 2 9.00156 2C10.0562 2 10.9838 1.45575 11.5187 0.632788ZM4 5.5V11.5C4 11.7761 3.77614 12 3.5 12C3.22386 12 3 11.7761 3 11.5V5.5C3 5.22386 3.22386 5 3.5 5C3.77614 5 4 5.22386 4 5.5ZM11 9V8C11 6.89543 10.1046 6 9 6C7.89543 6 7 6.89543 7 8V9C7 10.1046 7.89543 11 9 11C10.1046 11 11 10.1046 11 9ZM9 5C7.34315 5 6 6.34315 6 8V9C6 10.6569 7.34315 12 9 12C10.6569 12 12 10.6569 12 9V8C12 6.34315 10.6569 5 9 5ZM15 11.5V5.5C15 5.22386 14.7761 5 14.5 5C14.2239 5 14 5.22386 14 5.5V11.5C14 11.7761 14.2239 12 14.5 12C14.7761 12 15 11.7761 15 11.5ZM8 15.5C8 15.2239 8.22386 15 8.5 15H9.5C9.77614 15 10 15.2239 10 15.5C10 15.7761 9.77614 16 9.5 16H8.5C8.22386 16 8 15.7761 8 15.5ZM4.5 15C4.22386 15 4 15.2239 4 15.5C4 15.7761 4.22386 16 4.5 16H5.5C5.77614 16 6 15.7761 6 15.5C6 15.2239 5.77614 15 5.5 15H4.5ZM12.5 15C12.2239 15 12 15.2239 12 15.5C12 15.7761 12.2239 16 12.5 16H13.5C13.7761 16 14 15.7761 14 15.5C14 15.2239 13.7761 15 13.5 15H12.5ZM16 15.5C16 15.2239 16.2239 15 16.5 15H18V16H16.5C16.2239 16 16 15.7761 16 15.5Z" fill="#5957DB"/>
</svg>
