<svg width="180" height="26" viewBox="0 0 180 26" fill="none" xmlns="http://www.w3.org/2000/svg">
<path fill-rule="evenodd" clip-rule="evenodd" d="M3 0H0V26H3V0ZM63 0H60V26H63V0ZM120 0H123V26H120V0ZM8 0H7V26H8V0ZM67 0H68V26H67V0ZM128 0H127V26H128V0ZM10 0H12V26H10V0ZM72 0H70V26H72V0ZM130 0H132V26H130V0ZM19 0H14V26H19V0ZM74 0H79V26H74V0ZM139 0H134V26H139V0ZM20 0H21V26H20V0ZM81 0H80V26H81V0ZM140 0H141V26H140V0ZM25 0H24V26H25V0ZM84 0H85V26H84V0ZM145 0H144V26H145V0ZM28 0H30V26H28V0ZM90 0H88V26H90V0ZM148 0H150V26H148V0ZM34 0H31V26H34V0ZM91 0H94V26H91V0ZM154 0H151V26H154V0ZM36 0H37V26H36V0ZM97 0H96V26H97V0ZM156 0H157V26H156V0ZM45 0H41V26H45V0ZM101 0H105V26H101V0ZM165 0H161V26H165V0ZM47 0H50V26H47V0ZM110 0H107V26H110V0ZM167 0H170V26H167V0ZM52 0H51V26H52V0ZM111 0H112V26H111V0ZM172 0H171V26H172V0ZM174 0H175V26H174V0ZM58 0H55V26H58V0ZM115 0H118V26H115V0ZM180 0H176V26H180V0Z" fill="black"/>
</svg>
